<svg width="12" height="13" viewBox="0 0 12 13" fill="none" xmlns="http://www.w3.org/2000/svg">
<path d="M5.53025 0C4.15756 0 3.03082 1.12675 3.03082 2.49943V2.99932H0.562373L0.53138 3.46822L0.031493 12.4662L0 12.9971H11.06L11.029 12.4657L10.5291 3.46772L10.4976 2.99932H8.02969V2.49943C8.02969 1.12675 6.90294 0 5.53025 0ZM5.53025 0.999774C5.92798 0.999774 6.30943 1.15777 6.59067 1.43901C6.87191 1.72026 7.02991 2.1017 7.02991 2.49943V2.99932H4.03059V2.49943C4.03059 2.1017 4.18859 1.72026 4.46983 1.43901C4.75107 1.15777 5.13252 0.999774 5.53025 0.999774V0.999774ZM1.49966 3.9991H3.03082V5.49876H4.03059V3.9991H7.02991V5.49876H8.02969V3.9991H9.56084L9.99824 11.9973H1.06276L1.49966 3.9991Z" fill="#1F1F1F"/>
</svg>
