<svg width="87" height="88" viewBox="0 0 87 88" fill="none" xmlns="http://www.w3.org/2000/svg">
<path fill-rule="evenodd" clip-rule="evenodd" d="M4.58611 72.2532C8.61453 84.4695 61.7898 92.7042 79.3359 71.3483C85.5414 62.2993 87.8402 39.6766 79.3359 24.2929C75.7926 17.8832 68.4121 9.20719 56.0603 5.28975C27.8612 0.312744 13.1986 2.38427 2.79569 27.4601C1.77183 29.9284 -1.23292 30.2987 0.55768 27.0076C1.22336 25.7841 1.85632 24.4117 2.52957 22.952L2.52963 22.9519L2.52967 22.9518L2.52969 22.9517C6.83586 13.615 12.7905 0.704021 39.4991 0.312744C52.4795 0.312935 76.6503 2.12257 86.0499 32.8895C86.9451 50.5355 87.1238 63.0231 82.4689 71.3483C79.9389 75.873 74.4121 84.4695 52.9271 86.7317C30.0993 89.1355 9.9572 86.7317 3.6909 74.5154C2.9449 72.2531 2.07953 68.6333 4.58611 72.2532ZM1.90044 5.74227C3.69085 5.01834 5.6305 3.02754 6.37652 2.12263C6.67492 1.67017 6.91364 0.855755 5.48131 1.21772C4.04898 1.57968 1.90044 3.78166 1.00523 4.83736C0.557633 5.44064 0.11003 6.4662 1.90044 5.74227ZM1.45288 13.434C1.00528 15.6962 2.52291 15.3428 2.79569 14.7913C5.48131 9.36185 10.405 4.38484 18.0142 3.02748C19.357 2.78794 18.7052 1.25895 16.6714 1.67011C9.95738 3.02748 4.1385 7.09958 1.45288 13.434ZM85.6023 3.48015C84.5281 2.39426 83.6627 2.72606 83.3643 3.02769C83.0062 4.11359 84.4087 4.6867 85.1547 4.83752C85.7515 4.83752 86.6766 4.56604 85.6023 3.48015ZM71.7266 2.12257C77.0979 2.57502 82.8388 7.09958 86.0499 13.8864C86.6922 15.2438 87.1656 20.4766 86.9451 22.4831C86.7246 24.4895 85.4531 22.9355 85.1547 22.0306C85.0205 21.6238 84.9166 20.76 84.8021 19.809C84.6619 18.6441 84.5059 17.3484 84.2595 16.6011C83.159 13.264 77.9931 6.64712 71.279 3.93239C69.041 3.02748 70.3838 1.97174 71.7266 2.12257ZM84.7069 87.1844C83.6327 87.9083 83.3641 87.1844 83.3641 86.7319C83.5133 86.4303 83.9997 85.9582 85.1545 85.3746C85.7582 85.0695 86.1989 85.3746 86.0498 85.827C85.9737 86.0578 85.7812 86.4604 84.7069 87.1844ZM75.3075 85.3744C79.3359 82.6596 83.1853 78.4066 84.2595 74.063C85.0055 72.2532 86.408 69.4479 86.0499 74.5154C85.6918 79.5829 79.3359 85.3744 76.6503 86.7317C75.9157 87.103 73.3551 86.9002 75.3075 85.3744ZM3.6909 80.8498C1.5424 79.7639 2.19889 81.0007 2.79569 81.7547C3.5417 82.6596 5.57084 84.6504 7.71934 85.3744C9.86786 86.0983 9.21131 85.0728 8.61454 84.4695C7.86853 83.7154 5.83939 81.9357 3.6909 80.8498ZM16.3499 17.7002C9.64567 23.0504 3.8283 32.4804 2.33629 37.1558C1.25909 38.9657 0.385283 55.2541 1.57895 58.4212C5.15997 67.9228 14.5595 76.067 25.3019 78.7817C29.6961 79.8922 38.4317 79.9883 42.3109 79.6866C46.9659 77.8768 55.5897 77.4244 59.3198 77.4244C64.691 77.4244 76.3926 67.0179 79.4619 59.7786C83.4904 50.277 80.3571 34.8936 79.0143 31.7264C76.2536 25.2148 69.0141 18.8875 64.4626 14.9094C63.501 14.069 62.6594 13.3335 62.0054 12.7232C56.1866 7.29378 43.6537 5.03128 36.0444 5.93641C31.5684 6.46884 24.8543 10.9134 16.3499 17.7002ZM15.3284 23.3882C5.66021 31.3514 2.64635 44.5028 2.34795 50.083C2.34795 52.9787 2.94475 57.0207 3.24315 58.6797C9.33056 74.9681 27.4137 79.9451 41.2894 78.1353C44.5333 77.7122 47.6695 76.7767 49.8805 76.1171H49.8807L49.8809 76.117H49.881C51.0414 75.7709 51.9469 75.5008 52.4795 75.4205C69.3094 72.8868 76.2025 62.601 77.5453 57.7748C78.4405 55.06 79.8728 47.6398 78.4405 39.6766C77.1247 32.3613 71.941 27.7341 67.1533 23.4602C65.4262 21.9186 63.7507 20.4229 62.3268 18.8636C56.9555 12.9817 44.8703 7.55223 38.1562 10.2669C37.0658 10.7078 36.0464 11.0891 35.0516 11.461C29.9213 13.3792 25.4512 15.0507 15.3284 23.3882ZM37.261 15.6965C40.3945 14.339 55.6979 16.9497 64.1172 27.0079C69.0408 32.89 70.8312 36.057 71.7264 39.6766C72.174 42.5423 72.5321 49.9928 70.3836 56.8701C67.698 65.4668 58.2984 68.1815 52.9271 69.5389C51.1434 69.9896 47.1879 69.9664 44.3388 69.9496C42.8981 69.9411 41.7404 69.9343 41.2894 69.9913C40.9196 70.038 40.564 70.2296 40.0897 70.4852L40.0896 70.4852C39.0331 71.0545 37.387 71.9413 33.6802 72.2536C28.3089 72.7061 15.3284 65.4668 10.4048 57.775C8.316 54.9095 5.39166 46.9161 10.4048 37.867C15.418 28.8179 20.8489 25.9523 22.9377 25.6507C23.2623 25.6038 24.5754 24.5679 26.3564 23.1627L26.3565 23.1627C29.4878 20.6923 34.0655 17.0808 37.261 15.6965ZM28.309 67.7288C31.1439 68.6337 37.8877 69.8101 42.1847 67.2763C43.5679 66.4374 44.951 66.6355 46.8624 66.9091H46.8625H46.8626C48.044 67.0783 49.4271 67.2763 51.1368 67.2763C55.6128 67.2763 65.4601 64.1091 69.4885 54.1551C72.052 47.8208 70.8313 39.2241 66.3553 34.6995C63.6697 29.7225 56.6871 22.1213 48.4512 20.6734C47.6067 20.525 46.6088 20.236 45.5128 19.9186C41.3803 18.7217 35.8521 17.1207 31.8898 21.1259C31.6607 21.321 31.4081 21.5375 31.1355 21.7713L31.1342 21.7723C28.0353 24.4295 22.3478 29.3061 18.9094 30.175C15.3285 31.0799 9.95729 41.4864 9.95729 42.3913C9.21131 44.352 8.25639 49.5401 10.4049 54.6076C13.0905 60.942 20.2523 65.4664 28.309 67.7288ZM62.3269 37.4143C60.0889 31.5324 52.9272 25.6504 47.556 24.2931C46.122 23.8406 39.0515 23.3882 37.2611 25.198C35.8288 26.6458 30.6963 29.4209 28.3091 30.6274C22.0427 33.3422 21.1474 34.6995 19.357 38.7716C16.7352 44.7346 17.5665 49.1781 18.9094 51.8928C20.2522 54.6076 25.1758 59.1321 27.8614 60.942C30.547 62.7518 37.7087 63.2042 39.9467 61.8469C41.7371 60.761 45.1687 60.4895 46.6608 60.4895C48.4512 61.3944 50.6892 61.7646 52.032 61.3944C56.9556 60.037 61.8793 56.4174 62.7745 53.2502C64.923 45.649 63.3712 39.5257 62.3269 37.4143ZM22.4901 37.4145C16.9854 43.7739 20.1028 51.4406 22.4901 54.6078C22.9377 55.5126 24.8176 57.8653 28.7565 60.037C32.6954 62.2088 39.3498 60.942 42.1846 60.037C43.975 59.1321 45.3179 58.6797 47.1083 59.5846C49.2568 60.6705 50.3907 60.6404 50.6891 60.4895C52.9271 59.8863 58.0298 57.7748 60.5364 54.1551C63.6696 49.6306 62.3268 40.5815 61.4316 38.7716C60.5364 36.9618 52.9271 28.3653 46.2131 27.008C40.8418 25.9221 35.6197 28.9686 33.6801 30.6276C32.0387 32.0794 30.2092 32.8657 28.4071 33.6403C26.2779 34.5554 24.187 35.454 22.4901 37.4145ZM30.5471 37.4136C32.1883 37.2628 36.3658 36.0561 39.9468 32.4366C43.08 29.2696 50.6893 32.8902 54.2701 37.8667C55.4637 40.5815 57.0452 47.0063 53.8225 50.9879C50.5481 55.0333 48.4566 55.1928 46.3463 55.3537C45.8602 55.3907 45.3731 55.4278 44.8704 55.5125C44.1508 55.6338 43.5276 55.7225 42.9491 55.8049H42.9491C41.3687 56.0299 40.1223 56.2075 38.1564 56.8699C33.9348 58.2924 26.9663 55.5125 25.1759 50.083C24.8774 48.2735 24.8178 43.9303 26.9663 41.0339C29.1148 38.1377 30.2487 37.4136 30.5471 37.4136ZM27.8614 51.8929C27.2647 49.9323 26.4291 45.3776 27.8614 42.8438C28.4193 41.857 33.2326 38.7717 35.023 38.7717C35.9218 38.7717 37.5692 37.4053 38.8648 36.3308C39.5047 35.8 40.0587 35.3405 40.3942 35.1521C41.737 34.398 45.1388 33.3423 48.0035 35.1521C52.3004 37.8667 54.2699 40.5815 53.8223 48.2732C53.2255 50.083 50.152 53.6122 42.6322 53.2502C40.4837 53.2502 38.4546 54.1551 37.7086 54.6076C35.3214 55.0601 30.0101 55.1506 27.8614 51.8929ZM48.0036 43.7486C48.0036 41.0339 46.2131 39.2241 42.1845 39.2241C40.5582 39.2241 38.0284 41.0339 38.6038 45.1059C38.9619 47.6398 41.2894 48.2731 43.0798 48.2731C46.6607 48.2731 48.0036 46.0109 48.0036 43.7486ZM46.6606 43.7486C46.6606 41.9388 43.975 41.0338 42.6321 41.0339C40.3942 41.0339 39.3202 43.7486 39.4989 44.6536C39.7267 45.8061 42.8076 47.0371 43.5274 46.9158C44.4226 46.7651 46.6606 45.5585 46.6606 43.7486Z" fill="black"/>
</svg>
