<svg width="18" height="18" viewBox="0 0 18 18" fill="none" xmlns="http://www.w3.org/2000/svg">
<path d="M11.0013 0C7.14359 0 4.00257 3.1409 4.00257 6.99844C4.00257 7.70794 4.1079 8.39236 4.30425 9.03726C4.75324 10.512 4.74693 12.2467 3.65673 13.3366L0.503656 16.4887C0.22548 16.7668 0.225373 17.2177 0.503418 17.496C0.781572 17.7743 1.23272 17.7744 1.51096 17.4961L4.66205 14.3448C5.75266 13.254 7.48948 13.2473 8.96512 13.6963C9.62042 13.8956 10.3063 13.9984 11.0013 13.9969C14.859 13.9969 18 10.856 18 6.99844C18 3.1409 14.859 0 11.0013 0ZM11.0013 1.39969C14.1017 1.39969 16.6003 3.89813 16.6003 6.99844C16.6003 10.0988 14.1017 12.5972 11.0013 12.5972C7.90085 12.5972 5.40231 10.0988 5.40231 6.99844C5.40231 3.89813 7.90085 1.39969 11.0013 1.39969Z" fill="#111111"/>
</svg>
