<svg width="12" height="13" viewBox="0 0 12 13" fill="none" xmlns="http://www.w3.org/2000/svg">
<path d="M6 0C3.687 0 1.8 1.85841 1.8 4.13636C1.8 5.56046 2.538 6.825 3.6564 7.57132C1.5162 8.47541 0 10.5672 0 13H1.2C1.2 10.3823 3.342 8.27273 6 8.27273C8.658 8.27273 10.8 10.3823 10.8 13H12C12 10.5672 10.4838 8.476 8.3436 7.57073C8.91441 7.19123 9.38209 6.67975 9.70572 6.08104C10.0293 5.48233 10.1991 4.81463 10.2 4.13636C10.2 1.85841 8.313 0 6 0ZM6 1.18182C7.6638 1.18182 9 2.49777 9 4.13636C9 5.77496 7.6638 7.09091 6 7.09091C4.3362 7.09091 3 5.77496 3 4.13636C3 2.49777 4.3362 1.18182 6 1.18182Z" fill="#1F1F1F"/>
</svg>
